<?xml version='1.0' encoding='UTF-8'?>
<svg xmlns:dc="http://purl.org/dc/elements/1.1/" xmlns:cc="http://creativecommons.org/ns#" xmlns:rdf="http://www.w3.org/1999/02/22-rdf-syntax-ns#" xmlns:svg="http://www.w3.org/2000/svg" xmlns="http://www.w3.org/2000/svg" xmlns:sodipodi="http://sodipodi.sourceforge.net/DTD/sodipodi-0.dtd" xmlns:inkscape="http://www.inkscape.org/namespaces/inkscape" version="1.1" id="Logotype" x="0px" y="0px" width="4000px" height="3326px" viewBox="0 0 4000 3326" sodipodi:docname="source.svg" inkscape:version="0.92.3 (2405546, 2018-03-11)">
  <!--Creator: logaster.com--><metadata id="metadata26">
    <rdf:RDF>
      <cc:Work rdf:about="">
        <dc:format>image/svg+xml</dc:format>
        <dc:type rdf:resource="http://purl.org/dc/dcmitype/StillImage"/>
      </cc:Work>
    </rdf:RDF>
  </metadata>
  <sodipodi:namedview pagecolor="#ffffff" bordercolor="#666666" borderopacity="1" objecttolerance="10" gridtolerance="10" guidetolerance="10" inkscape:pageopacity="0" inkscape:pageshadow="2" inkscape:window-width="640" inkscape:window-height="480" id="namedview24" showgrid="false" inkscape:zoom="0.070956103" inkscape:cx="2000" inkscape:cy="1663" inkscape:window-x="0" inkscape:window-y="0" inkscape:window-maximized="0" inkscape:current-layer="Logotype"/>
  <path style="fill:#5a5a5a" d="M 0,0 H 4000 V 3326 H 0 Z" id="background"/>
  <defs id="defs3"/>
  <path d="M 2714.3254,1885.7968 H 1285.6746 c -174.2954,0 -314.30318,-140.0077 -314.30318,-314.3031 V 714.30318 C 971.37142,540.00778 1111.3792,400 1285.6746,400 h 1428.6508 c 174.2954,0 314.3032,140.00778 314.3032,314.30318 v 857.19052 c 0,174.2954 -140.0078,314.3031 -314.3032,314.3031 z M 1285.6746,457.14604 c -142.8651,0 -257.1571,114.29206 -257.1571,257.15714 v 857.19052 c 0,142.865 114.292,257.1571 257.1571,257.1571 h 1428.6508 c 142.8651,0 257.1571,-114.2921 257.1571,-257.1571 V 714.30318 c 0,-142.86508 -114.292,-257.15714 -257.1571,-257.15714 z" id="rnd1" inkscape:connector-curvature="0" style="fill:#ffffff;stroke-width:28.57301521"/>
  <path d="M 3000.0556,1028.6064 H 999.94444 c -17.14381,0 -28.57302,-11.4293 -28.57302,-28.5731 V 714.30318 c 0,-17.14381 11.42921,-28.57302 28.57302,-28.57302 H 3000.0556 c 17.1438,0 28.573,11.42921 28.573,28.57302 v 285.73012 c 0,17.1438 -11.4292,28.5731 -28.573,28.5731 z M 1028.5175,971.46032 h 1942.965 V 742.8762 h -1942.965 z" id="rnd2" inkscape:connector-curvature="0" style="fill:#ffffff;stroke-width:28.57301521"/>
  <path d="m 1571.4048,1314.3365 h -285.7302 c -17.1438,0 -28.573,-11.4292 -28.573,-28.573 0,-17.1438 11.4292,-28.573 28.573,-28.573 h 285.7302 c 17.1438,0 28.573,11.4292 28.573,28.573 0,17.1438 -11.4292,28.573 -28.573,28.573 z" id="rnd3" inkscape:connector-curvature="0" style="fill:#ffffff;stroke-width:28.57301521"/>
  <path d="m 2000,1491.4892 h -714.3254 c -17.1438,0 -28.573,-11.4292 -28.573,-28.573 0,-17.1438 11.4292,-28.573 28.573,-28.573 H 2000 c 17.1438,0 28.573,11.4292 28.573,28.573 0,17.1438 -11.4292,28.573 -28.573,28.573 z" id="rnd4" inkscape:connector-curvature="0" style="fill:#ffffff;stroke-width:28.57301521"/>
  <path d="m 1857.1349,1671.4992 h -571.4603 c -17.1438,0 -28.573,-11.4292 -28.573,-28.573 0,-17.1438 11.4292,-28.573 28.573,-28.573 h 571.4603 c 17.1438,0 28.573,11.4292 28.573,28.573 0,17.1438 -11.4292,28.573 -28.573,28.573 z" id="rnd5" inkscape:connector-curvature="0" style="fill:#ffffff;stroke-width:28.57301521"/>
  <path d="m 2714.3254,1600.0667 h -285.7302 c -17.1438,0 -28.573,-11.4292 -28.573,-28.573 v -285.7302 c 0,-17.1438 11.4292,-28.573 28.573,-28.573 h 285.7302 c 17.1438,0 28.573,11.4292 28.573,28.573 v 285.7302 c 0,17.1438 -11.4292,28.573 -28.573,28.573 z m -257.1571,-57.1461 h 228.5841 v -228.5841 h -228.5841 z" id="rnd6" inkscape:connector-curvature="0" style="fill:#ffffff;stroke-width:28.57301521"/>
  <g aria-label="Krampi" style="font-style:normal;font-weight:normal;font-size:705.9979248px;font-family:Blogger-Sans-Medium, 'Blogger Sans Medium', 'Blogger Sans Medium', 'Blogger Sans';letter-spacing:0px;fill:#ffffff;stroke-width:29.4165802" id="text15">
    <path d="m 1109.3628,2697.4722 -24.0039,28.9459 v 153.9076 q 0,14.8259 -11.296,26.1219 -11.2959,10.59 -27.5339,10.59 -16.2379,0 -27.5339,-10.59 -11.296,-11.296 -11.296,-26.1219 V 2443.313 q 0,-14.826 11.296,-25.416 11.296,-11.2959 27.5339,-11.2959 16.238,0 27.5339,11.2959 11.296,10.59 11.296,25.416 v 169.4395 l 158.8495,-189.2075 q 5.648,-6.354 14.12,-11.2959 9.178,-5.648 19.062,-5.648 12.0019,0 24.0039,9.8839 12.7079,9.884 12.7079,26.122 0,6.354 -2.118,12.7079 -1.4119,5.648 -7.0599,12.002 l -146.1416,172.2635 q 40.2419,55.0678 79.7778,110.1357 39.5358,55.0678 79.7777,110.1356 3.53,5.648 4.236,9.884 1.412,4.236 1.412,9.178 0,12.7079 -9.178,25.4159 -9.1779,12.708 -28.2399,12.708 -21.1799,0 -32.4759,-16.238 z" style="font-style:normal;font-weight:normal;font-size:705.9979248px;font-family:Blogger-Sans-Medium, 'Blogger Sans Medium', 'Blogger Sans Medium', 'Blogger Sans';letter-spacing:0px;fill:#ffffff;stroke-width:29.4165802" id="path3767"/>
    <path d="m 1536.0283,2621.9304 q -11.296,0 -21.18,0 -9.1779,0 -18.3559,1.412 -8.472,1.412 -18.356,4.942 -9.1779,3.53 -20.4739,9.884 0.706,4.942 0.706,9.178 0.706,3.53 0.706,7.0599 v 225.9194 q 0,15.5319 -11.296,26.1219 -10.5899,9.884 -26.8279,9.884 -16.2379,0 -27.5339,-9.884 -10.59,-10.59 -10.59,-26.1219 v -225.9194 q 0,-14.8259 -2.118,-24.0039 -2.118,-9.178 -7.7659,-16.9439 -3.53,-4.236 -5.648,-8.472 -1.412,-4.236 -1.412,-10.59 0,-14.8259 10.5899,-24.0039 11.296,-9.178 26.122,-9.178 9.8839,0 17.6499,5.648 8.472,5.648 14.826,14.826 24.0039,-14.12 48.7138,-21.886 25.416,-8.4719 43.7719,-8.4719 26.8279,0 36.7119,9.8839 10.59,9.884 10.59,24.7099 0,16.944 -11.296,27.534 -11.296,9.8839 -27.5339,8.4719 z" style="font-style:normal;font-weight:normal;font-size:705.9979248px;font-family:Blogger-Sans-Medium, 'Blogger Sans Medium', 'Blogger Sans Medium', 'Blogger Sans';letter-spacing:0px;fill:#ffffff;stroke-width:29.4165802" id="path3769"/>
    <path d="m 1806.7564,2675.5863 q 0,-62.1278 -64.9518,-62.1278 -14.1199,0 -23.2979,2.824 -9.178,2.824 -18.356,6.3539 l -13.4139,5.648 q -7.06,3.53 -18.356,3.53 -15.5319,0 -22.5919,-9.884 -6.354,-9.8839 -6.354,-21.1799 0,-14.12 9.178,-24.0039 9.178,-9.884 24.7099,-16.238 15.532,-6.354 35.2999,-9.1779 19.768,-2.824 40.2419,-2.824 72.0118,0 103.0757,36.7119 31.0639,36.7118 31.0639,107.3116 v 143.3176 q 0,13.414 4.942,17.65 4.942,3.53 12.7079,4.9419 21.18,4.236 21.18,25.416 0,29.6519 -41.6539,29.6519 -36.7119,0 -56.4798,-31.7699 -39.5359,33.8879 -96.0157,33.8879 -57.8919,0 -87.5438,-29.6519 -28.9459,-29.6519 -28.9459,-79.0718 v -2.118 q 0,-106.6057 132.0216,-106.6057 32.4759,0 63.5398,8.472 z m -61.4218,80.4837 q -18.3559,0 -30.3579,4.236 -11.296,3.53 -17.65,10.59 -6.3539,6.354 -8.4719,15.532 -2.118,9.1779 -2.118,19.0619 v 2.118 q 0,21.1799 11.2959,33.1819 12.002,11.296 41.6539,11.296 18.356,0 34.5939,-5.648 16.238,-5.648 32.4759,-19.062 v -63.5398 q -15.5319,-3.53 -31.7699,-5.648 -16.2379,-2.118 -29.6519,-2.118 z" style="font-style:normal;font-weight:normal;font-size:705.9979248px;font-family:Blogger-Sans-Medium, 'Blogger Sans Medium', 'Blogger Sans Medium', 'Blogger Sans';letter-spacing:0px;fill:#ffffff;stroke-width:29.4165802" id="path3771"/>
    <path d="m 2375.0517,2672.7623 q 0,-24.0039 -13.414,-40.2419 -13.414,-16.9439 -39.5359,-16.9439 -18.3559,0 -36.0059,8.4719 -16.9439,8.472 -31.0639,22.592 1.412,5.648 2.118,12.0019 0.706,6.354 0.706,12.708 v 208.9754 q 0,14.8259 -9.884,25.4159 -9.1779,9.884 -28.2399,9.884 -19.0619,0 -28.9459,-9.884 -9.178,-10.59 -9.178,-25.4159 v -193.4434 q 0,-15.532 -2.118,-28.24 -1.412,-13.4139 -7.0599,-22.5919 -4.942,-9.884 -14.12,-14.826 -9.178,-5.6479 -24.7099,-5.6479 -18.356,0 -36.7119,7.0599 -18.356,6.354 -33.8879,16.238 0.706,3.53 0.706,7.766 0.706,3.53 0.706,7.0599 v 226.6254 q 0,14.8259 -9.884,25.4159 -9.178,9.884 -28.2399,9.884 -19.062,0 -28.9459,-9.884 -9.178,-10.59 -9.178,-25.4159 v -226.6254 q 0,-11.2959 -0.706,-17.6499 -0.706,-7.06 -2.118,-10.59 -1.412,-4.236 -3.53,-6.3539 -1.412,-2.118 -2.824,-4.942 -4.236,-6.354 -6.354,-10.59 -2.118,-4.236 -2.118,-9.884 0,-14.8259 10.59,-24.0039 10.59,-9.178 25.4159,-9.178 10.59,0 18.356,5.648 8.472,4.942 14.1199,13.414 24.004,-14.826 48.7139,-22.592 25.4159,-8.4719 50.8319,-8.4719 25.4159,0 45.1838,8.4719 20.474,8.472 36.7119,24.71 25.4159,-16.238 50.1259,-24.71 24.7099,-8.4719 54.3618,-8.4719 60.0098,0 93.1917,33.8879 33.1819,33.8879 33.1819,88.9557 v 208.9754 q 0,14.8259 -9.8839,25.4159 -9.178,9.884 -28.24,9.884 -19.0619,0 -28.9459,-9.884 -9.1779,-10.59 -9.1779,-25.4159 z" style="font-style:normal;font-weight:normal;font-size:705.9979248px;font-family:Blogger-Sans-Medium, 'Blogger Sans Medium', 'Blogger Sans Medium', 'Blogger Sans';letter-spacing:0px;fill:#ffffff;stroke-width:29.4165802" id="path3773"/>
    <path d="m 2698.2774,2915.6256 q -16.238,0 -33.8879,-3.53 -16.944,-2.824 -36.0059,-10.59 v 124.9617 q 0,14.8259 -9.884,24.7099 -9.884,10.5899 -28.2399,10.5899 -18.356,0 -28.2399,-10.5899 -9.884,-10.59 -9.884,-24.7099 v -372.061 q 0,-14.8259 -2.118,-24.0039 -2.118,-9.178 -7.766,-16.9439 -3.53,-4.236 -5.6479,-8.472 -1.412,-4.236 -1.412,-9.884 0,-15.5319 11.2959,-24.7099 11.296,-9.178 24.004,-9.178 18.3559,0 32.4759,18.356 24.7099,-14.12 48.7138,-22.592 24.7099,-8.4719 52.2439,-8.4719 28.9459,0 51.5378,9.8839 22.5919,9.884 37.4179,28.2399 15.532,17.65 23.2979,42.3599 8.472,24.7099 8.472,55.0679 v 86.8377 q 0,31.7699 -6.354,58.5978 -6.354,26.122 -21.1799,45.1839 -14.826,19.0619 -38.8299,30.3579 -24.0039,10.59 -60.0098,10.59 z m -69.8938,-76.2478 q 16.2379,6.354 32.4759,9.178 16.9439,2.824 28.9459,2.824 32.4759,0 45.1839,-19.062 13.4139,-19.7679 13.4139,-61.4218 v -86.8377 q 0,-69.8938 -57.1858,-69.8938 -14.826,0 -31.7699,4.942 -16.238,4.9419 -33.8879,14.1199 1.412,5.648 2.118,11.296 0.706,4.942 0.706,9.8839 z" style="font-style:normal;font-weight:normal;font-size:705.9979248px;font-family:Blogger-Sans-Medium, 'Blogger Sans Medium', 'Blogger Sans Medium', 'Blogger Sans';letter-spacing:0px;fill:#ffffff;stroke-width:29.4165802" id="path3775"/>
    <path d="m 2994.7303,2447.549 q -0.706,17.6499 -13.414,29.6519 -12.708,12.0019 -31.0639,12.0019 -19.0619,0 -31.7699,-12.0019 -12.708,-12.708 -12.708,-29.6519 0,-17.65 12.708,-29.652 12.708,-12.0019 31.7699,-12.0019 18.3559,0 31.0639,12.7079 13.414,12.002 13.414,28.946 z m -6.354,432.7767 q 0,15.5319 -11.296,25.4159 -10.59,9.884 -26.8279,9.884 -16.238,0 -27.5339,-9.884 -10.59,-9.884 -10.59,-25.4159 v -294.4012 q 0,-14.1199 10.59,-24.7099 11.2959,-10.5899 27.5339,-10.5899 16.2379,0 26.8279,10.5899 11.296,10.59 11.296,24.7099 z" style="font-style:normal;font-weight:normal;font-size:705.9979248px;font-family:Blogger-Sans-Medium, 'Blogger Sans Medium', 'Blogger Sans Medium', 'Blogger Sans';letter-spacing:0px;fill:#ffffff;stroke-width:29.4165802" id="path3777"/>
  </g>
</svg>